<svg width="1876" height="895" viewBox="0 0 1876 895" fill="none" xmlns="http://www.w3.org/2000/svg">
<path fill-rule="evenodd" clip-rule="evenodd" d="M72.8406 238.112C72.8406 330.981 144.505 407.089 238.108 407.089C290.301 407.089 338.885 382.417 370.306 340.874L378.081 330.59H463.654L436.128 371.16C391.409 437.064 317.832 476.064 238.108 476.064C107.121 476.059 0 369.504 0 238.112C0 106.72 107.026 0 238.113 0C321.432 0 398.929 43.2037 442.426 114.476L466.543 153.992H382.843L375.133 142.599C344.352 97.1281 293.2 68.9745 238.118 68.9745C144.42 68.9745 72.8506 145.183 72.8506 238.112H72.8406Z" fill="black"/>
<path fill-rule="evenodd" clip-rule="evenodd" d="M647.128 476.064C547.273 476.064 466.542 394.526 466.542 294.84C466.542 195.155 547.358 114.255 647.128 114.255C746.898 114.255 828.351 194.916 828.351 294.84C828.351 394.765 746.983 476.064 647.128 476.064ZM647.128 407.577C709.392 407.577 758.749 356.826 758.749 294.84C758.749 232.855 709.312 182.741 647.128 182.741C584.944 182.741 536.149 232.935 536.149 294.84C536.149 356.746 584.869 407.577 647.128 407.577Z" fill="black"/>
<path fill-rule="evenodd" clip-rule="evenodd" d="M858.408 187.453H809.308V121.093H858.588C861.873 60.4248 909.855 9.52161 972.214 9.52161H998.055V75.7227H972.214C947.038 75.7227 930.403 97.7565 927.503 121.093H998.06V187.453H927.048V466.543H858.413V187.453H858.408ZM1012.43 187.453V466.543H1081.06V187.453H1152.07V121.093H1081.52C1084.42 97.7565 1101.05 75.7227 1126.23 75.7227H1152.07V9.52161H1126.23C1063.87 9.52161 1015.89 60.4248 1012.6 121.093H963.323V187.453H1012.42H1012.43Z" fill="black"/>
<path fill-rule="evenodd" clip-rule="evenodd" d="M1205.54 319.504C1216.88 369.215 1260.26 407.572 1313.62 407.572C1354.92 407.572 1392.76 384.941 1412.65 348.92L1420.01 335.599H1494.6L1477.21 372.403C1447.4 435.494 1383.61 476.064 1313.62 476.064C1213.76 476.064 1133.03 394.526 1133.03 294.84C1133.03 195.155 1213.85 114.255 1313.62 114.255C1413.39 114.255 1494.84 194.204 1494.84 293.725V319.509H1205.53L1205.54 319.504ZM1209.6 253.25H1418.23C1401.6 211.415 1360.61 182.736 1313.62 182.736C1266.63 182.736 1226.09 211.484 1209.6 253.25Z" fill="black"/>
<path fill-rule="evenodd" clip-rule="evenodd" d="M1586.39 319.504C1597.73 369.215 1641.12 407.572 1694.47 407.572C1735.78 407.572 1773.61 384.941 1793.5 348.92L1800.86 335.599H1875.45L1858.06 372.403C1828.25 435.494 1764.46 476.064 1694.47 476.064C1594.61 476.064 1513.88 394.526 1513.88 294.84C1513.88 195.155 1594.7 114.255 1694.47 114.255C1794.24 114.255 1875.69 194.204 1875.69 293.725V319.509H1586.38L1586.39 319.504ZM1590.46 253.25H1799.09C1782.46 211.415 1741.46 182.736 1694.47 182.736C1647.48 182.736 1606.95 211.484 1590.46 253.25Z" fill="black"/>
<path fill-rule="evenodd" clip-rule="evenodd" d="M536.973 624.507C557.562 606.078 584.457 595.293 613.86 595.293C679.771 595.293 735.634 647.037 735.634 712.671C735.634 778.306 680.4 831.959 613.86 831.959C583.718 831.959 557.347 821.361 536.973 802.888V894.999H495.107V600.924H536.973V624.507ZM879.206 831.959C812.946 831.959 759.374 778.621 759.374 713.414C759.374 648.208 813.001 595.293 879.206 595.293C945.412 595.293 999.468 648.051 999.468 713.414C999.468 778.778 945.466 831.959 879.206 831.959ZM1073.83 826.328H1031.97V600.929H1073.83V826.328ZM1073.83 575.722H1031.97V514.148H1073.83V575.722ZM1154.36 613.22C1170.97 601.732 1191.34 595.293 1211.51 595.293C1263.62 595.293 1304.27 639.668 1304.27 690.24V826.328H1262.41V689.817C1262.41 660.568 1238.06 636.567 1208.39 636.567C1178.71 636.567 1154.36 660.622 1154.36 689.817V826.328H1112.5V600.929H1154.36V613.225V613.22ZM1398.56 642.198V826.328H1357.45V642.198H1318.3V600.929H1357.45V532.253H1398.56V600.929H1437.71V642.198H1398.56ZM693.009 712.671C693.009 670.25 657.879 636.562 615.043 636.562C572.208 636.562 536.973 670.182 536.973 712.671C536.973 755.161 571.554 790.69 615.043 790.69C658.533 790.69 693.009 755.368 693.009 712.671ZM879.206 790.69C922.501 790.69 956.847 755.909 956.847 713.414C956.847 670.92 922.446 636.562 879.206 636.562C835.966 636.562 801.995 670.974 801.995 713.414C801.995 755.855 835.906 790.69 879.206 790.69Z" fill="black"/>
</svg>
